<svg width="15" height="10" viewBox="0 0 15 10" fill="none" xmlns="http://www.w3.org/2000/svg">
<path d="M9.79028 9.15626C9.66268 9.04688 9.59888 8.90105 9.59888 8.71876C9.59888 8.53647 9.66268 8.38152 9.79028 8.25391L12.3879 5.65626H1.28638C0.885335 5.6198 0.666585 5.39194 0.630127 4.97266C0.666585 4.58985 0.885335 4.38022 1.28638 4.34376H12.3879L9.79028 1.7461C9.53508 1.43621 9.53508 1.12631 9.79028 0.816415C10.1002 0.561207 10.4101 0.561207 10.72 0.816415L14.4387 4.53516C14.6939 4.84506 14.6939 5.15496 14.4387 5.46485L10.72 9.1836C10.4101 9.43881 10.1002 9.4297 9.79028 9.15626Z" fill="white"/>
</svg>
