<svg width="871" height="232" viewBox="0 0 871 232" fill="none" xmlns="http://www.w3.org/2000/svg">
<g opacity="0.08">
<mask id="path-1-outside-1_33_26742" maskUnits="userSpaceOnUse" x="-195" y="-1" width="1067" height="234" fill="black">
<rect fill="white" x="-195" y="-1" width="1067" height="234"/>
<path d="M-193.4 228V4.49998H-152.6V192H-56.9V228H-193.4ZM-33.8094 228V64.8H5.49063V228H-33.8094ZM-33.8094 46.5V4.49998H5.49063V46.5H-33.8094ZM103.877 231.6C86.4766 231.6 71.2766 227.5 58.2766 219.3C45.4766 210.9 36.6766 199.6 31.8766 185.4L61.2766 171.3C65.4766 180.5 71.2766 187.7 78.6766 192.9C86.2766 198.1 94.6766 200.7 103.877 200.7C111.077 200.7 116.777 199.1 120.977 195.9C125.177 192.7 127.277 188.5 127.277 183.3C127.277 180.1 126.377 177.5 124.577 175.5C122.977 173.3 120.677 171.5 117.677 170.1C114.877 168.5 111.777 167.2 108.377 166.2L81.6766 158.7C67.8766 154.7 57.3766 148.6 50.1766 140.4C43.1766 132.2 39.6766 122.5 39.6766 111.3C39.6766 101.3 42.1766 92.6 47.1766 85.2C52.3766 77.6 59.4766 71.7 68.4766 67.5C77.6766 63.3 88.1766 61.2 99.9766 61.2C115.377 61.2 128.977 64.9 140.777 72.3C152.577 79.7 160.977 90.1 165.977 103.5L135.977 117.6C133.177 110.2 128.477 104.3 121.877 99.9C115.277 95.5 107.877 93.3 99.6766 93.3C93.0766 93.3 87.8766 94.8 84.0766 97.8C80.2766 100.8 78.3766 104.7 78.3766 109.5C78.3766 112.5 79.1766 115.1 80.7766 117.3C82.3766 119.5 84.5766 121.3 87.3766 122.7C90.3766 124.1 93.7766 125.4 97.5766 126.6L123.677 134.4C137.077 138.4 147.377 144.4 154.577 152.4C161.977 160.4 165.677 170.2 165.677 181.8C165.677 191.6 163.077 200.3 157.877 207.9C152.677 215.3 145.477 221.1 136.277 225.3C127.077 229.5 116.277 231.6 103.877 231.6ZM270.278 229.8C251.878 229.8 237.578 224.8 227.378 214.8C217.378 204.6 212.378 190.3 212.378 171.9V99.9H184.178V64.8H187.178C195.178 64.8 201.378 62.7 205.778 58.5C210.178 54.3 212.378 48.2 212.378 40.2V27.6H251.678V64.8H289.178V99.9H251.678V169.8C251.678 175.2 252.578 179.8 254.378 183.6C256.378 187.4 259.378 190.3 263.378 192.3C267.578 194.3 272.878 195.3 279.278 195.3C280.678 195.3 282.278 195.2 284.078 195C286.078 194.8 287.978 194.6 289.778 194.4V228C286.978 228.4 283.778 228.8 280.178 229.2C276.578 229.6 273.278 229.8 270.278 229.8ZM408.904 231.6C397.104 231.6 386.204 229.3 376.204 224.7C366.404 219.9 358.604 213.1 352.804 204.3L356.704 196.5V228H319.804V0.899991H359.104V97.2L353.104 89.1C358.704 80.3 366.304 73.5 375.904 68.7C385.504 63.7 396.604 61.2 409.204 61.2C424.604 61.2 438.504 65 450.904 72.6C463.304 80.2 473.104 90.4 480.304 103.2C487.704 116 491.404 130.4 491.404 146.4C491.404 162.2 487.804 176.6 480.604 189.6C473.404 202.6 463.604 212.9 451.204 220.5C438.804 227.9 424.704 231.6 408.904 231.6ZM404.404 195.6C413.404 195.6 421.404 193.5 428.404 189.3C435.404 185.1 440.804 179.3 444.604 171.9C448.604 164.5 450.604 156 450.604 146.4C450.604 136.8 448.604 128.4 444.604 121.2C440.804 113.8 435.404 108 428.404 103.8C421.404 99.4 413.404 97.2 404.404 97.2C395.804 97.2 388.004 99.3 381.004 103.5C374.204 107.7 368.804 113.6 364.804 121.2C361.004 128.6 359.104 137 359.104 146.4C359.104 156 361.004 164.5 364.804 171.9C368.804 179.3 374.204 185.1 381.004 189.3C388.004 193.5 395.804 195.6 404.404 195.6ZM521.366 228V64.8H558.266V96.9L555.266 91.2C559.066 81.4 565.266 74 573.866 69C582.666 63.8 592.866 61.2 604.466 61.2C616.466 61.2 627.066 63.8 636.266 69C645.666 74.2 652.966 81.5 658.166 90.9C663.366 100.1 665.966 110.8 665.966 123V228H626.666V132.3C626.666 125.1 625.266 118.9 622.466 113.7C619.666 108.5 615.766 104.5 610.766 101.7C605.966 98.7 600.266 97.2 593.666 97.2C587.266 97.2 581.566 98.7 576.566 101.7C571.566 104.5 567.666 108.5 564.866 113.7C562.066 118.9 560.666 125.1 560.666 132.3V228H521.366ZM788.298 231.6C776.498 231.6 765.598 229.3 755.598 224.7C745.798 219.9 737.998 213.1 732.198 204.3L736.098 196.5V228H699.198V0.899991H738.498V97.2L732.498 89.1C738.098 80.3 745.698 73.5 755.298 68.7C764.898 63.7 775.998 61.2 788.598 61.2C803.998 61.2 817.898 65 830.298 72.6C842.698 80.2 852.498 90.4 859.698 103.2C867.098 116 870.798 130.4 870.798 146.4C870.798 162.2 867.198 176.6 859.998 189.6C852.798 202.6 842.998 212.9 830.598 220.5C818.198 227.9 804.098 231.6 788.298 231.6ZM783.798 195.6C792.798 195.6 800.798 193.5 807.798 189.3C814.798 185.1 820.198 179.3 823.998 171.9C827.998 164.5 829.998 156 829.998 146.4C829.998 136.8 827.998 128.4 823.998 121.2C820.198 113.8 814.798 108 807.798 103.8C800.798 99.4 792.798 97.2 783.798 97.2C775.198 97.2 767.398 99.3 760.398 103.5C753.598 107.7 748.198 113.6 744.198 121.2C740.398 128.6 738.498 137 738.498 146.4C738.498 156 740.398 164.5 744.198 171.9C748.198 179.3 753.598 185.1 760.398 189.3C767.398 193.5 775.198 195.6 783.798 195.6Z"/>
</mask>
<path d="M-193.4 228H-194.4V229H-193.4V228ZM-193.4 4.49998V3.49998H-194.4V4.49998H-193.4ZM-152.6 4.49998H-151.6V3.49998H-152.6V4.49998ZM-152.6 192H-153.6V193H-152.6V192ZM-56.9 192H-55.9V191H-56.9V192ZM-56.9 228V229H-55.9V228H-56.9ZM-192.4 228V4.49998H-194.4V228H-192.4ZM-193.4 5.49998H-152.6V3.49998H-193.4V5.49998ZM-153.6 4.49998V192H-151.6V4.49998H-153.6ZM-152.6 193H-56.9V191H-152.6V193ZM-57.9 192V228H-55.9V192H-57.9ZM-56.9 227H-193.4V229H-56.9V227ZM-33.8094 228H-34.8094V229H-33.8094V228ZM-33.8094 64.8V63.8H-34.8094V64.8H-33.8094ZM5.49063 64.8H6.49063V63.8H5.49063V64.8ZM5.49063 228V229H6.49063V228H5.49063ZM-33.8094 46.5H-34.8094V47.5H-33.8094V46.5ZM-33.8094 4.49998V3.49998H-34.8094V4.49998H-33.8094ZM5.49063 4.49998H6.49063V3.49998H5.49063V4.49998ZM5.49063 46.5V47.5H6.49063V46.5H5.49063ZM-32.8094 228V64.8H-34.8094V228H-32.8094ZM-33.8094 65.8H5.49063V63.8H-33.8094V65.8ZM4.49063 64.8V228H6.49063V64.8H4.49063ZM5.49063 227H-33.8094V229H5.49063V227ZM-32.8094 46.5V4.49998H-34.8094V46.5H-32.8094ZM-33.8094 5.49998H5.49063V3.49998H-33.8094V5.49998ZM4.49063 4.49998V46.5H6.49063V4.49998H4.49063ZM5.49063 45.5H-33.8094V47.5H5.49063V45.5ZM58.2766 219.3L57.7279 220.136L57.7354 220.141L57.7431 220.146L58.2766 219.3ZM31.8766 185.4L31.4441 184.498L30.6456 184.881L30.9292 185.72L31.8766 185.4ZM61.2766 171.3L62.1862 170.885L61.763 169.958L60.8441 170.398L61.2766 171.3ZM78.6766 192.9L78.1016 193.718L78.1119 193.725L78.6766 192.9ZM120.977 195.9L120.371 195.105L120.977 195.9ZM124.577 175.5L123.768 176.088L123.798 176.13L123.833 176.169L124.577 175.5ZM117.677 170.1L117.18 170.968L117.216 170.989L117.254 171.006L117.677 170.1ZM108.377 166.2L108.659 165.241L108.647 165.237L108.377 166.2ZM81.6766 158.7L81.3982 159.66L81.4061 159.663L81.6766 158.7ZM50.1766 140.4L49.4159 141.049L49.4251 141.06L50.1766 140.4ZM47.1766 85.2L46.3513 84.6353L46.348 84.6401L47.1766 85.2ZM68.4766 67.5L68.0612 66.5903L68.0537 66.5938L68.4766 67.5ZM140.777 72.3L141.308 71.4528L140.777 72.3ZM165.977 103.5L166.402 104.405L167.235 104.013L166.913 103.15L165.977 103.5ZM135.977 117.6L135.041 117.954L135.424 118.965L136.402 118.505L135.977 117.6ZM121.877 99.9L121.322 100.732L121.877 99.9ZM84.0766 97.8L84.6962 98.5849L84.0766 97.8ZM87.3766 122.7L86.9294 123.594L86.9414 123.6L86.9537 123.606L87.3766 122.7ZM97.5766 126.6L97.2754 127.554L97.2828 127.556L97.2902 127.558L97.5766 126.6ZM123.677 134.4L123.39 135.358L123.391 135.358L123.677 134.4ZM154.577 152.4L153.833 153.069L153.842 153.079L154.577 152.4ZM157.877 207.9L158.695 208.475L158.702 208.465L157.877 207.9ZM103.877 230.6C86.6398 230.6 71.63 226.541 58.8101 218.454L57.7431 220.146C70.9231 228.459 86.3134 232.6 103.877 232.6V230.6ZM58.8252 218.464C46.2077 210.184 37.5507 199.063 32.8239 185.08L30.9292 185.72C35.8024 200.137 44.7455 211.616 57.7279 220.136L58.8252 218.464ZM32.309 186.302L61.709 172.202L60.8441 170.398L31.4441 184.498L32.309 186.302ZM60.3669 171.715C64.6317 181.057 70.5396 188.404 78.1016 193.718L79.2515 192.082C72.0135 186.996 66.3214 179.943 62.1862 170.885L60.3669 171.715ZM78.1119 193.725C85.8781 199.039 94.4748 201.7 103.877 201.7V199.7C94.8783 199.7 86.6751 197.161 79.2412 192.075L78.1119 193.725ZM103.877 201.7C111.217 201.7 117.155 200.069 121.583 196.695L120.371 195.105C116.398 198.131 110.936 199.7 103.877 199.7V201.7ZM121.583 196.695C126.026 193.31 128.277 188.818 128.277 183.3H126.277C126.277 188.182 124.327 192.09 120.371 195.105L121.583 196.695ZM128.277 183.3C128.277 179.902 127.315 177.048 125.32 174.831L123.833 176.169C125.438 177.952 126.277 180.298 126.277 183.3H128.277ZM125.385 174.912C123.666 172.548 121.22 170.65 118.099 169.194L117.254 171.006C120.133 172.35 122.287 174.052 123.768 176.088L125.385 174.912ZM118.173 169.232C115.299 167.59 112.126 166.26 108.659 165.241L108.094 167.159C111.427 168.14 114.454 169.41 117.18 170.968L118.173 169.232ZM108.647 165.237L81.947 157.737L81.4061 159.663L108.106 167.163L108.647 165.237ZM81.955 157.74C68.2812 153.776 57.9682 147.758 50.928 139.74L49.4251 141.06C56.785 149.442 67.4719 155.624 81.3982 159.66L81.955 157.74ZM50.9371 139.751C44.0981 131.739 40.6766 122.272 40.6766 111.3H38.6766C38.6766 122.728 42.255 132.661 49.416 141.049L50.9371 139.751ZM40.6766 111.3C40.6766 101.475 43.13 92.9751 48.0052 85.7599L46.348 84.6401C41.2231 92.2249 38.6766 101.125 38.6766 111.3H40.6766ZM48.0019 85.7647C53.0928 78.3241 60.0486 72.5366 68.8994 68.4062L68.0537 66.5938C58.9046 70.8634 51.6603 76.8759 46.3513 84.6353L48.0019 85.7647ZM68.8918 68.4097C77.9415 64.2783 88.2961 62.2 99.9766 62.2V60.2C88.057 60.2 77.4116 62.3217 68.0613 66.5903L68.8918 68.4097ZM99.9766 62.2C115.209 62.2 128.621 65.8574 140.245 73.1472L141.308 71.4528C129.332 63.9426 115.544 60.2 99.9766 60.2V62.2ZM140.245 73.1472C151.854 80.4271 160.114 90.6496 165.04 103.85L166.913 103.15C161.839 89.5504 153.299 78.9729 141.308 71.4528L140.245 73.1472ZM165.551 102.595L135.551 116.695L136.402 118.505L166.402 104.405L165.551 102.595ZM136.912 117.246C134.038 109.65 129.204 103.583 122.431 99.0679L121.322 100.732C127.749 105.017 132.315 110.75 135.041 117.954L136.912 117.246ZM122.431 99.0679C115.661 94.5546 108.067 92.3 99.6766 92.3V94.3C107.686 94.3 114.892 96.4454 121.322 100.732L122.431 99.0679ZM99.6766 92.3C92.9327 92.3 87.4879 93.8328 83.4569 97.0151L84.6962 98.5849C88.2652 95.7672 93.2205 94.3 99.6766 94.3V92.3ZM83.4569 97.0151C79.4191 100.203 77.3766 104.391 77.3766 109.5H79.3766C79.3766 105.009 81.134 101.397 84.6962 98.5849L83.4569 97.0151ZM77.3766 109.5C77.3766 112.689 78.2307 115.5 79.9678 117.888L81.5853 116.712C80.1224 114.7 79.3766 112.311 79.3766 109.5H77.3766ZM79.9678 117.888C81.6754 120.236 84.0078 122.134 86.9294 123.594L87.8238 121.806C85.1454 120.466 83.0778 118.764 81.5853 116.712L79.9678 117.888ZM86.9537 123.606C90.0002 125.028 93.4419 126.343 97.2754 127.554L97.8777 125.646C94.1112 124.457 90.753 123.172 87.7994 121.794L86.9537 123.606ZM97.2902 127.558L123.39 135.358L123.963 133.442L97.8629 125.642L97.2902 127.558ZM123.391 135.358C136.666 139.321 146.788 145.241 153.833 153.069L155.32 151.731C147.965 143.559 137.487 137.479 123.963 133.442L123.391 135.358ZM153.842 153.079C161.06 160.882 164.677 170.434 164.677 181.8H166.677C166.677 169.966 162.893 159.918 155.311 151.721L153.842 153.079ZM164.677 181.8C164.677 191.412 162.13 199.913 157.051 207.335L158.702 208.465C164.023 200.687 166.677 191.788 166.677 181.8H164.677ZM157.058 207.325C151.972 214.563 144.919 220.255 135.861 224.39L136.692 226.21C146.034 221.945 153.381 216.037 158.695 208.475L157.058 207.325ZM135.861 224.39C126.818 228.519 116.165 230.6 103.877 230.6V232.6C116.388 232.6 127.335 230.481 136.692 226.21L135.861 224.39ZM227.378 214.8L226.664 215.5L226.671 215.507L226.678 215.514L227.378 214.8ZM212.378 99.9H213.378V98.9H212.378V99.9ZM184.178 99.9H183.178V100.9H184.178V99.9ZM184.178 64.8V63.8H183.178V64.8H184.178ZM205.778 58.5L206.469 59.2234L205.778 58.5ZM212.378 27.6V26.6H211.378V27.6H212.378ZM251.678 27.6H252.678V26.6H251.678V27.6ZM251.678 64.8H250.678V65.8H251.678V64.8ZM289.178 64.8H290.178V63.8H289.178V64.8ZM289.178 99.9V100.9H290.178V99.9H289.178ZM251.678 99.9V98.9H250.678V99.9H251.678ZM254.378 183.6L253.474 184.028L253.483 184.047L253.493 184.066L254.378 183.6ZM263.378 192.3L262.931 193.194L262.94 193.199L262.948 193.203L263.378 192.3ZM284.078 195L283.979 194.005L283.968 194.006L284.078 195ZM289.778 194.4H290.778V193.283L289.668 193.406L289.778 194.4ZM289.778 228L289.92 228.99L290.778 228.867V228H289.778ZM280.178 229.2L280.289 230.194L280.178 229.2ZM270.278 228.8C252.061 228.8 238.042 223.854 228.078 214.086L226.678 215.514C237.115 225.746 251.695 230.8 270.278 230.8V228.8ZM228.092 214.1C218.324 204.136 213.378 190.117 213.378 171.9H211.378C211.378 190.483 216.432 205.064 226.664 215.5L228.092 214.1ZM213.378 171.9V99.9H211.378V171.9H213.378ZM212.378 98.9H184.178V100.9H212.378V98.9ZM185.178 99.9V64.8H183.178V99.9H185.178ZM184.178 65.8H187.178V63.8H184.178V65.8ZM187.178 65.8C195.352 65.8 201.83 63.6513 206.469 59.2234L205.088 57.7766C200.926 61.7487 195.005 63.8 187.178 63.8V65.8ZM206.469 59.2234C211.123 54.7804 213.378 48.3832 213.378 40.2H211.378C211.378 48.0168 209.233 53.8196 205.088 57.7766L206.469 59.2234ZM213.378 40.2V27.6H211.378V40.2H213.378ZM212.378 28.6H251.678V26.6H212.378V28.6ZM250.678 27.6V64.8H252.678V27.6H250.678ZM251.678 65.8H289.178V63.8H251.678V65.8ZM288.178 64.8V99.9H290.178V64.8H288.178ZM289.178 98.9H251.678V100.9H289.178V98.9ZM250.678 99.9V169.8H252.678V99.9H250.678ZM250.678 169.8C250.678 175.307 251.596 180.062 253.474 184.028L255.282 183.172C253.561 179.538 252.678 175.093 252.678 169.8H250.678ZM253.493 184.066C255.595 188.059 258.752 191.105 262.931 193.194L263.825 191.406C260.004 189.495 257.161 186.741 255.263 183.134L253.493 184.066ZM262.948 193.203C267.323 195.286 272.782 196.3 279.278 196.3V194.3C272.974 194.3 267.833 193.314 263.808 191.397L262.948 193.203ZM279.278 196.3C280.724 196.3 282.362 196.197 284.189 195.994L283.968 194.006C282.194 194.203 280.632 194.3 279.278 194.3V196.3ZM284.178 195.995C286.181 195.795 288.085 195.594 289.889 195.394L289.668 193.406C287.872 193.606 285.975 193.805 283.979 194.005L284.178 195.995ZM288.778 194.4V228H290.778V194.4H288.778ZM289.637 227.01C286.849 227.408 283.66 227.807 280.068 228.206L280.289 230.194C283.896 229.793 287.107 229.392 289.92 228.99L289.637 227.01ZM280.068 228.206C276.497 228.603 273.235 228.8 270.278 228.8V230.8C273.322 230.8 276.659 230.597 280.289 230.194L280.068 228.206ZM376.204 224.7L375.764 225.598L375.775 225.603L375.786 225.608L376.204 224.7ZM352.804 204.3L351.909 203.853L351.652 204.369L351.969 204.85L352.804 204.3ZM356.704 196.5H357.704L355.81 196.053L356.704 196.5ZM356.704 228V229H357.704V228H356.704ZM319.804 228H318.804V229H319.804V228ZM319.804 0.89999V-0.10001H318.804V0.89999H319.804ZM359.104 0.89999H360.104V-0.10001H359.104V0.89999ZM359.104 97.2L358.3 97.7952L360.104 100.23V97.2H359.104ZM353.104 89.1L352.26 88.5631L351.891 89.1429L352.3 89.6952L353.104 89.1ZM375.904 68.7L376.351 69.5944L376.359 69.5907L376.366 69.5869L375.904 68.7ZM450.904 72.6L450.381 73.4526L450.904 72.6ZM480.304 103.2L479.432 103.69L479.438 103.701L480.304 103.2ZM480.604 189.6L479.729 189.115L480.604 189.6ZM451.204 220.5L451.716 221.359L451.727 221.353L451.204 220.5ZM428.404 189.3L427.889 188.443L428.404 189.3ZM444.604 171.9L443.724 171.424L443.719 171.434L443.714 171.443L444.604 171.9ZM444.604 121.2L443.714 121.657L443.722 121.671L443.73 121.686L444.604 121.2ZM428.404 103.8L427.872 104.647L427.88 104.652L427.889 104.657L428.404 103.8ZM381.004 103.5L380.489 102.642L380.478 102.649L381.004 103.5ZM364.804 121.2L363.919 120.734L363.914 120.743L364.804 121.2ZM364.804 171.9L363.914 172.357L363.919 172.366L363.924 172.376L364.804 171.9ZM381.004 189.3L380.478 190.151L380.489 190.157L381.004 189.3ZM408.904 230.6C397.238 230.6 386.481 228.327 376.622 223.792L375.786 225.608C385.926 230.273 396.97 232.6 408.904 232.6V230.6ZM376.644 223.802C366.998 219.078 359.337 212.395 353.639 203.75L351.969 204.85C357.871 213.805 365.81 220.722 375.764 225.598L376.644 223.802ZM353.698 204.747L357.598 196.947L355.81 196.053L351.909 203.853L353.698 204.747ZM355.704 196.5V228H357.704V196.5H355.704ZM356.704 227H319.804V229H356.704V227ZM320.804 228V0.89999H318.804V228H320.804ZM319.804 1.89999H359.104V-0.10001H319.804V1.89999ZM358.104 0.89999V97.2H360.104V0.89999H358.104ZM359.907 96.6048L353.907 88.5048L352.3 89.6952L358.3 97.7952L359.907 96.6048ZM353.948 89.6369C359.447 80.9944 366.908 74.3158 376.351 69.5944L375.457 67.8056C365.7 72.6842 357.96 79.6056 352.26 88.5631L353.948 89.6369ZM376.366 69.5869C385.801 64.6725 396.738 62.2 409.204 62.2V60.2C396.47 60.2 385.206 62.7275 375.442 67.8131L376.366 69.5869ZM409.204 62.2C424.431 62.2 438.148 65.9547 450.381 73.4526L451.426 71.7474C438.86 64.0452 424.777 60.2 409.204 60.2V62.2ZM450.381 73.4526C462.635 80.9626 472.315 91.0373 479.432 103.69L481.175 102.71C473.893 89.7627 463.973 79.4374 451.426 71.7474L450.381 73.4526ZM479.438 103.701C486.743 116.336 490.404 130.561 490.404 146.4H492.404C492.404 130.239 488.665 115.664 481.17 102.699L479.438 103.701ZM490.404 146.4C490.404 162.042 486.842 176.273 479.729 189.115L481.479 190.085C488.766 176.927 492.404 162.358 492.404 146.4H490.404ZM479.729 189.115C472.611 201.968 462.931 212.14 450.681 219.647L451.727 221.353C464.277 213.66 474.197 203.232 481.479 190.085L479.729 189.115ZM450.691 219.641C438.461 226.94 424.541 230.6 408.904 230.6V232.6C424.867 232.6 439.147 228.86 451.716 221.359L450.691 219.641ZM404.404 196.6C413.566 196.6 421.747 194.46 428.918 190.157L427.889 188.443C421.06 192.54 413.242 194.6 404.404 194.6V196.6ZM428.918 190.157C436.082 185.86 441.61 179.919 445.493 172.357L443.714 171.443C439.998 178.681 434.726 184.34 427.889 188.443L428.918 190.157ZM445.484 172.376C449.573 164.81 451.604 156.142 451.604 146.4H449.604C449.604 155.858 447.635 164.19 443.724 171.424L445.484 172.376ZM451.604 146.4C451.604 136.658 449.573 128.086 445.478 120.714L443.73 121.686C447.634 128.714 449.604 136.942 449.604 146.4H451.604ZM445.493 120.743C441.61 113.181 436.082 107.24 428.918 102.942L427.889 104.657C434.726 108.76 439.998 114.419 443.714 121.657L445.493 120.743ZM428.936 102.953C421.763 98.4443 413.575 96.2 404.404 96.2V98.2C413.233 98.2 421.045 100.356 427.872 104.647L428.936 102.953ZM404.404 96.2C395.633 96.2 387.653 98.3442 380.489 102.643L381.518 104.357C388.355 100.256 395.975 98.2 404.404 98.2V96.2ZM380.478 102.649C373.515 106.95 367.996 112.988 363.919 120.734L365.689 121.666C369.612 114.212 374.893 108.45 381.529 104.351L380.478 102.649ZM363.914 120.743C360.033 128.302 358.104 136.862 358.104 146.4H360.104C360.104 137.138 361.975 128.898 365.693 121.657L363.914 120.743ZM358.104 146.4C358.104 156.134 360.031 164.795 363.914 172.357L365.693 171.443C361.977 164.205 360.104 155.866 360.104 146.4H358.104ZM363.924 172.376C368.003 179.921 373.522 185.854 380.478 190.151L381.529 188.449C374.886 184.346 369.605 178.679 365.684 171.424L363.924 172.376ZM380.489 190.157C387.653 194.456 395.633 196.6 404.404 196.6V194.6C395.975 194.6 388.355 192.544 381.518 188.443L380.489 190.157ZM521.366 228H520.366V229H521.366V228ZM521.366 64.8V63.8H520.366V64.8H521.366ZM558.266 64.8H559.266V63.8H558.266V64.8ZM558.266 96.9L557.381 97.3657L559.266 96.9H558.266ZM555.266 91.2L554.334 90.8385L554.169 91.2629L554.381 91.6657L555.266 91.2ZM573.866 69L574.369 69.8645L574.375 69.8609L573.866 69ZM636.266 69L635.774 69.8706L635.782 69.875L636.266 69ZM658.166 90.9L657.291 91.3841L657.296 91.3921L658.166 90.9ZM665.966 228V229H666.966V228H665.966ZM626.666 228H625.666V229H626.666V228ZM622.466 113.7L623.347 113.226L622.466 113.7ZM610.766 101.7L610.236 102.548L610.257 102.561L610.278 102.572L610.766 101.7ZM576.566 101.7L577.055 102.572L577.068 102.565L577.081 102.557L576.566 101.7ZM564.866 113.7L565.747 114.174L564.866 113.7ZM560.666 228V229H561.666V228H560.666ZM522.366 228V64.8H520.366V228H522.366ZM521.366 65.8H558.266V63.8H521.366V65.8ZM557.266 64.8V96.9H559.266V64.8H557.266ZM559.151 96.4342L556.151 90.7342L554.381 91.6657L557.381 97.3657L559.151 96.4342ZM556.199 91.5615C559.922 81.9602 565.977 74.7437 574.369 69.8645L573.364 68.1355C564.556 73.2563 558.211 80.8398 554.334 90.8385L556.199 91.5615ZM574.375 69.8609C583.001 64.7637 593.021 62.2 604.466 62.2V60.2C592.712 60.2 582.332 62.8363 573.358 68.1391L574.375 69.8609ZM604.466 62.2C616.318 62.2 626.744 64.7664 635.774 69.8706L636.758 68.1294C627.389 62.8336 616.615 60.2 604.466 60.2V62.2ZM635.782 69.875C645.018 74.984 652.182 82.1485 657.291 91.3841L659.041 90.4159C653.75 80.8515 646.315 73.4159 636.75 68.125L635.782 69.875ZM657.296 91.3921C662.399 100.42 664.966 110.946 664.966 123H666.966C666.966 110.654 664.334 99.7799 659.037 90.4079L657.296 91.3921ZM664.966 123V228H666.966V123H664.966ZM665.966 227H626.666V229H665.966V227ZM627.666 228V132.3H625.666V228H627.666ZM627.666 132.3C627.666 124.97 626.241 118.6 623.347 113.226L621.586 114.174C624.292 119.2 625.666 125.23 625.666 132.3H627.666ZM623.347 113.226C620.46 107.864 616.426 103.723 611.255 100.827L610.278 102.572C615.107 105.277 618.873 109.136 621.586 114.174L623.347 113.226ZM611.296 100.852C606.313 97.7371 600.422 96.2 593.666 96.2V98.2C600.111 98.2 605.62 99.6629 610.236 102.548L611.296 100.852ZM593.666 96.2C587.103 96.2 581.222 97.7403 576.052 100.842L577.081 102.557C581.911 99.6597 587.429 98.2 593.666 98.2V96.2ZM576.078 100.827C570.907 103.723 566.873 107.864 563.986 113.226L565.747 114.174C568.46 109.136 572.226 105.277 577.055 102.572L576.078 100.827ZM563.986 113.226C561.092 118.6 559.666 124.97 559.666 132.3H561.666C561.666 125.23 563.041 119.2 565.747 114.174L563.986 113.226ZM559.666 132.3V228H561.666V132.3H559.666ZM560.666 227H521.366V229H560.666V227ZM755.598 224.7L755.159 225.598L755.169 225.603L755.181 225.608L755.598 224.7ZM732.198 204.3L731.304 203.853L731.046 204.369L731.363 204.85L732.198 204.3ZM736.098 196.5H737.098L735.204 196.053L736.098 196.5ZM736.098 228V229H737.098V228H736.098ZM699.198 228H698.198V229H699.198V228ZM699.198 0.89999V-0.10001H698.198V0.89999H699.198ZM738.498 0.89999H739.498V-0.10001H738.498V0.89999ZM738.498 97.2L737.695 97.7952L739.498 100.23V97.2H738.498ZM732.498 89.1L731.655 88.5631L731.286 89.1429L731.695 89.6952L732.498 89.1ZM755.298 68.7L755.746 69.5944L755.753 69.5907L755.76 69.5869L755.298 68.7ZM830.298 72.6L829.776 73.4526L830.298 72.6ZM859.698 103.2L858.827 103.69L858.833 103.701L859.698 103.2ZM859.998 189.6L859.124 189.115L859.998 189.6ZM830.598 220.5L831.111 221.359L831.121 221.353L830.598 220.5ZM807.798 189.3L807.284 188.443L807.798 189.3ZM823.998 171.9L823.119 171.424L823.114 171.434L823.109 171.443L823.998 171.9ZM823.998 121.2L823.109 121.657L823.116 121.671L823.124 121.686L823.998 121.2ZM807.798 103.8L807.266 104.647L807.275 104.652L807.284 104.657L807.798 103.8ZM760.398 103.5L759.884 102.642L759.873 102.649L760.398 103.5ZM744.198 121.2L743.313 120.734L743.309 120.743L744.198 121.2ZM744.198 171.9L743.309 172.357L743.314 172.366L743.319 172.376L744.198 171.9ZM760.398 189.3L759.873 190.151L759.884 190.157L760.398 189.3ZM788.298 230.6C776.632 230.6 765.876 228.327 756.016 223.792L755.181 225.608C765.321 230.273 776.365 232.6 788.298 232.6V230.6ZM756.038 223.802C746.393 219.078 738.732 212.395 733.033 203.75L731.363 204.85C737.265 213.805 745.204 220.722 755.159 225.598L756.038 223.802ZM733.093 204.747L736.993 196.947L735.204 196.053L731.304 203.853L733.093 204.747ZM735.098 196.5V228H737.098V196.5H735.098ZM736.098 227H699.198V229H736.098V227ZM700.198 228V0.89999H698.198V228H700.198ZM699.198 1.89999H738.498V-0.10001H699.198V1.89999ZM737.498 0.89999V97.2H739.498V0.89999H737.498ZM739.302 96.6048L733.302 88.5048L731.695 89.6952L737.695 97.7952L739.302 96.6048ZM733.342 89.6369C738.842 80.9944 746.303 74.3158 755.746 69.5944L754.851 67.8056C745.094 72.6842 737.355 79.6056 731.655 88.5631L733.342 89.6369ZM755.76 69.5869C765.196 64.6725 776.133 62.2 788.598 62.2V60.2C775.864 60.2 764.601 62.7275 754.836 67.8131L755.76 69.5869ZM788.598 62.2C803.825 62.2 817.542 65.9547 829.776 73.4526L830.821 71.7474C818.254 64.0452 804.172 60.2 788.598 60.2V62.2ZM829.776 73.4526C842.029 80.9626 851.71 91.0373 858.827 103.69L860.57 102.71C853.287 89.7627 843.368 79.4374 830.821 71.7474L829.776 73.4526ZM858.833 103.701C866.138 116.336 869.798 130.561 869.798 146.4H871.798C871.798 130.239 868.059 115.664 860.564 102.699L858.833 103.701ZM869.798 146.4C869.798 162.042 866.236 176.273 859.124 189.115L860.873 190.085C868.161 176.927 871.798 162.358 871.798 146.4H869.798ZM859.124 189.115C852.005 201.968 842.325 212.14 830.076 219.647L831.121 221.353C843.672 213.66 853.591 203.232 860.873 190.085L859.124 189.115ZM830.086 219.641C817.855 226.94 803.936 230.6 788.298 230.6V232.6C804.261 232.6 818.542 228.86 831.111 221.359L830.086 219.641ZM783.798 196.6C792.961 196.6 801.142 194.46 808.313 190.157L807.284 188.443C800.455 192.54 792.636 194.6 783.798 194.6V196.6ZM808.313 190.157C815.476 185.86 821.005 179.919 824.888 172.357L823.109 171.443C819.392 178.681 814.121 184.34 807.284 188.443L808.313 190.157ZM824.878 172.376C828.968 164.81 830.998 156.142 830.998 146.4H828.998C828.998 155.858 827.029 164.19 823.119 171.424L824.878 172.376ZM830.998 146.4C830.998 136.658 828.968 128.086 824.873 120.714L823.124 121.686C827.029 128.714 828.998 136.942 828.998 146.4H830.998ZM824.888 120.743C821.005 113.181 815.476 107.24 808.313 102.942L807.284 104.657C814.121 108.76 819.392 114.419 823.109 121.657L824.888 120.743ZM808.331 102.953C801.157 98.4443 792.969 96.2 783.798 96.2V98.2C792.627 98.2 800.44 100.356 807.266 104.647L808.331 102.953ZM783.798 96.2C775.027 96.2 767.048 98.3442 759.884 102.643L760.913 104.357C767.749 100.256 775.37 98.2 783.798 98.2V96.2ZM759.873 102.649C752.91 106.95 747.39 112.988 743.314 120.734L745.083 121.666C749.007 114.212 754.287 108.45 760.924 104.351L759.873 102.649ZM743.309 120.743C739.427 128.302 737.498 136.862 737.498 146.4H739.498C739.498 137.138 741.37 128.898 745.088 121.657L743.309 120.743ZM737.498 146.4C737.498 156.134 739.426 164.795 743.309 172.357L745.088 171.443C741.371 164.205 739.498 155.866 739.498 146.4H737.498ZM743.319 172.376C747.397 179.921 752.916 185.854 759.873 190.151L760.924 188.449C754.281 184.346 748.999 178.679 745.078 171.424L743.319 172.376ZM759.884 190.157C767.048 194.456 775.027 196.6 783.798 196.6V194.6C775.37 194.6 767.749 192.544 760.913 188.443L759.884 190.157Z" fill="black" mask="url(#path-1-outside-1_33_26742)"/>
</g>
</svg>
