<svg width="14" height="15" viewBox="0 0 14 15" fill="none" xmlns="http://www.w3.org/2000/svg">
<path d="M8.75 1.81262C6.5625 1.81262 4.8125 3.58996 4.8125 5.75012C4.8125 5.77746 4.8125 5.77746 4.8125 5.77746C4.8125 6.16028 4.86719 6.54309 4.97656 6.89856L1.3125 10.5626V13.1876H3.9375V11.8751H5.25V10.5626H6.125L7.27344 9.41418C7.71094 9.60559 8.23047 9.68762 8.75 9.68762C10.9102 9.68762 12.6875 7.93762 12.6875 5.75012C12.6875 3.58996 10.9102 1.81262 8.75 1.81262ZM8.75 0.500122C11.6484 0.500122 14 2.85168 14 5.75012C14 8.6759 11.6484 11.0001 8.75 11.0001C8.36719 11.0001 8.01172 10.9728 7.65625 10.8907L6.5625 11.9845V12.5313C6.5625 12.9142 6.26172 13.1876 5.90625 13.1876H5.25V13.8439C5.25 14.2267 4.94922 14.5001 4.59375 14.5001H0.65625C0.273438 14.5001 0 14.2267 0 13.8439V10.3165C0 10.1251 0.0546875 9.96102 0.191406 9.85172L3.52734 6.4884C3.5 6.24231 3.5 5.99621 3.5 5.75012C3.5 2.85168 5.82422 0.500122 8.75 0.500122ZM8.75 4.43762C8.75 3.72668 9.32422 3.12512 10.0625 3.12512C10.7734 3.12512 11.375 3.72668 11.375 4.43762C11.375 5.1759 10.7734 5.75012 10.0625 5.75012C9.32422 5.75012 8.75 5.1759 8.75 4.43762Z" fill="#212121"/>
</svg>
