<svg width="14" height="16" viewBox="0 0 14 16" fill="none" xmlns="http://www.w3.org/2000/svg">
<path d="M13.5078 6.01184C13.8086 6.25793 14 6.6134 14 7.02356V14.1876C14 14.9259 13.3984 15.5001 12.6875 15.5001H1.3125C0.574219 15.5001 0 14.9259 0 14.1876V7.02356C0 6.6134 0.164062 6.25793 0.464844 6.01184C0.574219 5.92981 3.5 3.57824 4.15625 3.03137C4.78516 2.53918 5.79688 1.50012 7 1.50012C8.17578 1.50012 9.21484 2.56653 9.81641 3.03137C10.4453 3.5509 13.3711 5.90246 13.5078 6.01184ZM12.6875 14.0235V7.10559C12.6875 7.0509 12.6602 6.99621 12.6055 6.96887C12.168 6.6134 9.625 4.58996 8.99609 4.07043C8.50391 3.68762 7.62891 2.81262 7 2.81262C6.34375 2.81262 5.46875 3.66028 4.97656 4.07043C4.34766 4.58996 1.80469 6.6134 1.36719 6.96887C1.3125 6.99621 1.3125 7.0509 1.3125 7.10559V14.0235C1.3125 14.1329 1.36719 14.1876 1.47656 14.1876H12.5234C12.6055 14.1876 12.6875 14.1329 12.6875 14.0235ZM11.8125 8.91028C11.9219 9.047 11.8945 9.26574 11.7578 9.37512C10.9648 10.004 10.1172 10.6603 9.81641 10.9337C9.1875 11.4259 8.17578 12.4376 7 12.4376C5.79688 12.4376 4.75781 11.3985 4.15625 10.9337C3.85547 10.6876 3.00781 10.004 2.21484 9.37512C2.07812 9.26574 2.05078 9.047 2.16016 8.91028L2.59766 8.39074C2.70703 8.25403 2.89844 8.22668 3.0625 8.3634C3.82812 8.99231 4.64844 9.64856 4.97656 9.89465C5.46875 10.2775 6.34375 11.1251 7 11.1251C7.62891 11.1251 8.50391 10.3048 8.99609 9.89465C9.32422 9.64856 10.1445 8.99231 10.9102 8.3634C11.0742 8.22668 11.2656 8.25403 11.375 8.39074L11.8125 8.91028Z" fill="#212121"/>
</svg>
