<svg width="9" height="13" viewBox="0 0 9 13" fill="none" xmlns="http://www.w3.org/2000/svg">
<path d="M4.5 0.40625C3.73828 0.40625 3.03027 0.59668 2.37598 0.977539C1.74121 1.3584 1.2334 1.86621 0.852539 2.50098C0.47168 3.15527 0.28125 3.86328 0.28125 4.625C0.28125 4.92773 0.339844 5.2793 0.457031 5.67969C0.554688 6.01172 0.706055 6.40723 0.911133 6.86621C1.24316 7.61816 1.67773 8.45801 2.21484 9.38574C2.60547 10.0693 3.04004 10.7725 3.51855 11.4951C3.7627 11.8662 3.96289 12.1641 4.11914 12.3887L4.5 12.9453L5.48145 11.4951C5.95996 10.7725 6.39453 10.0693 6.78516 9.38574C7.32227 8.45801 7.75684 7.61816 8.08887 6.86621C8.29395 6.40723 8.44531 6.01172 8.54297 5.67969C8.66016 5.2793 8.71875 4.92773 8.71875 4.625C8.71875 3.86328 8.52832 3.15527 8.14746 2.50098C7.7666 1.86621 7.25879 1.3584 6.62402 0.977539C5.96973 0.59668 5.26172 0.40625 4.5 0.40625ZM4.5 1.34375C5.0957 1.34375 5.64502 1.49023 6.14795 1.7832C6.65088 2.07617 7.04883 2.47412 7.3418 2.97705C7.63477 3.47998 7.78125 4.0293 7.78125 4.625C7.78125 4.81055 7.73242 5.07178 7.63477 5.40869C7.53711 5.74561 7.40527 6.10449 7.23926 6.48535C6.95605 7.12988 6.53125 7.94043 5.96484 8.91699C5.48633 9.7373 5.00781 10.5088 4.5293 11.2314L4.5 11.2607L4.4707 11.2314C3.99219 10.5088 3.51367 9.7373 3.03516 8.91699C2.46875 7.94043 2.04395 7.12988 1.76074 6.48535C1.59473 6.10449 1.46289 5.74561 1.36523 5.40869C1.26758 5.07178 1.21875 4.81055 1.21875 4.625C1.21875 4.0293 1.36523 3.47998 1.6582 2.97705C1.95117 2.47412 2.34912 2.07617 2.85205 1.7832C3.35498 1.49023 3.9043 1.34375 4.5 1.34375ZM4.5 3.6875C4.23633 3.6875 4.01416 3.77783 3.8335 3.9585C3.65283 4.13916 3.5625 4.36133 3.5625 4.625C3.5625 4.88867 3.65283 5.11084 3.8335 5.2915C4.01416 5.47217 4.23633 5.5625 4.5 5.5625C4.76367 5.5625 4.98584 5.47217 5.1665 5.2915C5.34717 5.11084 5.4375 4.88867 5.4375 4.625C5.4375 4.36133 5.34717 4.13916 5.1665 3.9585C4.98584 3.77783 4.76367 3.6875 4.5 3.6875Z" fill="#667085"/>
</svg>
