<svg width="13" height="14" viewBox="0 0 13 14" fill="none" xmlns="http://www.w3.org/2000/svg">
<path d="M7.4375 8.3125H4.8125C3.44531 8.34896 2.3151 8.82292 1.42188 9.73438C0.510417 10.6276 0.0364583 11.7578 0 13.125C0 13.3802 0.0820312 13.5898 0.246094 13.7539C0.410156 13.918 0.619792 14 0.875 14H11.375C11.6302 14 11.8398 13.918 12.0039 13.7539C12.168 13.5898 12.25 13.3802 12.25 13.125C12.2135 11.7578 11.7396 10.6276 10.8281 9.73438C9.9349 8.82292 8.80469 8.34896 7.4375 8.3125ZM1.33984 12.6875C1.46745 11.8125 1.85026 11.0833 2.48828 10.5C3.1263 9.9349 3.90104 9.64323 4.8125 9.625H7.4375C8.34896 9.64323 9.1237 9.9349 9.76172 10.5C10.3997 11.0833 10.7826 11.8125 10.9102 12.6875H1.33984ZM6.125 7C7.10938 6.98177 7.9388 6.64453 8.61328 5.98828C9.26953 5.3138 9.60677 4.48438 9.625 3.5C9.60677 2.51562 9.26953 1.6862 8.61328 1.01172C7.9388 0.355469 7.10938 0.0182295 6.125 0C5.14062 0.0182295 4.3112 0.355469 3.63672 1.01172C2.98047 1.6862 2.64323 2.51562 2.625 3.5C2.64323 4.48438 2.98047 5.3138 3.63672 5.98828C4.3112 6.64453 5.14062 6.98177 6.125 7ZM6.125 1.3125C6.74479 1.33073 7.26432 1.54036 7.68359 1.94141C8.08464 2.36068 8.29427 2.88021 8.3125 3.5C8.29427 4.11979 8.08464 4.63932 7.68359 5.05859C7.26432 5.45964 6.74479 5.66927 6.125 5.6875C5.50521 5.66927 4.98568 5.45964 4.56641 5.05859C4.16536 4.63932 3.95573 4.11979 3.9375 3.5C3.95573 2.88021 4.16536 2.36068 4.56641 1.94141C4.98568 1.54036 5.50521 1.33073 6.125 1.3125Z" fill="#212121" fill-opacity="0.3"/>
</svg>
