<svg width="13" height="13" viewBox="0 0 13 13" fill="none" xmlns="http://www.w3.org/2000/svg">
<path d="M3.45775 0.40625C3.20384 0.40625 2.97435 0.489258 2.76927 0.655273L2.73998 0.669922L1.26048 2.19336L1.27513 2.20801C1.05052 2.41309 0.904038 2.65967 0.835679 2.94775C0.76732 3.23584 0.781968 3.5166 0.879624 3.79004V3.80469C1.1433 4.56641 1.50951 5.34766 1.97826 6.14844C2.63255 7.25195 3.39916 8.24316 4.27806 9.12207C5.72337 10.5674 7.49583 11.7002 9.59544 12.5205H9.61009C9.8933 12.6182 10.1789 12.6377 10.467 12.5791C10.7551 12.5205 11.0115 12.3936 11.2361 12.1982L12.7156 10.7188C12.9109 10.5234 13.0085 10.2817 13.0085 9.99365C13.0085 9.70557 12.9109 9.46387 12.7156 9.26855L10.8113 7.36426L10.7966 7.33496C10.6013 7.13965 10.3572 7.04199 10.0642 7.04199C9.77122 7.04199 9.52708 7.13965 9.33177 7.33496L8.39427 8.27246C7.67162 7.9209 7.03197 7.48145 6.47533 6.9541C5.93822 6.44629 5.50365 5.81152 5.17162 5.0498L6.10912 4.1123C6.30443 3.91699 6.40208 3.67773 6.40208 3.39453C6.40208 3.11133 6.29955 2.87207 6.09447 2.67676L6.10912 2.66211L4.19017 0.68457L4.14623 0.655273C3.94115 0.489258 3.71166 0.40625 3.45775 0.40625ZM3.45775 1.34375C3.48705 1.34375 3.52123 1.3584 3.56029 1.3877L5.47923 3.35059C5.489 3.38965 5.47923 3.42383 5.44994 3.45312L4.27806 4.625L4.05834 4.83008L4.16087 5.12305L4.33666 5.5332C4.50267 5.875 4.68822 6.20215 4.8933 6.51465C5.18626 6.94434 5.49876 7.32031 5.8308 7.64258L5.93333 7.73047C6.2556 8.02344 6.62181 8.30176 7.03197 8.56543C7.32494 8.76074 7.62767 8.93652 7.94017 9.09277L8.59935 9.40039L10.0056 7.99414C10.0349 7.96484 10.0544 7.9502 10.0642 7.9502C10.074 7.9502 10.0935 7.96484 10.1228 7.99414L12.0857 9.95703C12.1052 9.97656 12.115 9.98877 12.115 9.99365C12.115 9.99854 12.1052 10.0107 12.0857 10.0303L10.6208 11.4951C10.4158 11.6709 10.1765 11.7148 9.90306 11.627C7.92064 10.8457 6.26537 9.79102 4.93724 8.46289C4.11693 7.64258 3.39916 6.70996 2.78392 5.66504C2.34447 4.90332 2.00267 4.17578 1.75853 3.48242C1.71947 3.38477 1.71459 3.2749 1.74388 3.15283C1.77318 3.03076 1.82689 2.93555 1.90501 2.86719L3.35521 1.3877C3.39427 1.3584 3.42845 1.34375 3.45775 1.34375Z" fill="#667085"/>
</svg>
